<mxfile host="app.diagrams.net" agent="Mozilla/5.0 (Windows NT 10.0; Win64; x64) AppleWebKit/537.36 (KHTML, like Gecko) Chrome/128.0.0.0 Safari/537.36" version="24.7.16">
  <diagram id="C5RBs43oDa-KdzZeNtuy" name="Page-1">
    <mxGraphModel grid="1" page="1" gridSize="10" guides="1" tooltips="1" connect="1" arrows="1" fold="1" pageScale="1" pageWidth="827" pageHeight="1169" math="0" shadow="0">
      <root>
        <mxCell id="WIyWlLk6GJQsqaUBKTNV-0" />
        <mxCell id="WIyWlLk6GJQsqaUBKTNV-1" parent="WIyWlLk6GJQsqaUBKTNV-0" />
        <mxCell id="27wgJjuN0Uf3lMTMzmJz-2" value="User" style="swimlane;fontStyle=2;align=center;verticalAlign=top;childLayout=stackLayout;horizontal=1;startSize=26;horizontalStack=0;resizeParent=1;resizeLast=0;collapsible=1;marginBottom=0;rounded=0;shadow=0;strokeWidth=1;" vertex="1" parent="WIyWlLk6GJQsqaUBKTNV-1">
          <mxGeometry x="320" y="-300" width="160" height="386" as="geometry">
            <mxRectangle x="320" y="-210" width="160" height="26" as="alternateBounds" />
          </mxGeometry>
        </mxCell>
        <mxCell id="27wgJjuN0Uf3lMTMzmJz-3" value="+Username: string" style="text;align=left;verticalAlign=top;spacingLeft=4;spacingRight=4;overflow=hidden;rotatable=0;points=[[0,0.5],[1,0.5]];portConstraint=eastwest;" vertex="1" parent="27wgJjuN0Uf3lMTMzmJz-2">
          <mxGeometry y="26" width="160" height="26" as="geometry" />
        </mxCell>
        <mxCell id="27wgJjuN0Uf3lMTMzmJz-4" value="-Password : string" style="text;align=left;verticalAlign=top;spacingLeft=4;spacingRight=4;overflow=hidden;rotatable=0;points=[[0,0.5],[1,0.5]];portConstraint=eastwest;rounded=0;shadow=0;html=0;" vertex="1" parent="27wgJjuN0Uf3lMTMzmJz-2">
          <mxGeometry y="52" width="160" height="26" as="geometry" />
        </mxCell>
        <mxCell id="27wgJjuN0Uf3lMTMzmJz-5" value="+First name: string&#xa;" style="text;align=left;verticalAlign=top;spacingLeft=4;spacingRight=4;overflow=hidden;rotatable=0;points=[[0,0.5],[1,0.5]];portConstraint=eastwest;rounded=0;shadow=0;html=0;" vertex="1" parent="27wgJjuN0Uf3lMTMzmJz-2">
          <mxGeometry y="78" width="160" height="26" as="geometry" />
        </mxCell>
        <mxCell id="27wgJjuN0Uf3lMTMzmJz-18" value="+Middle name: string" style="text;align=left;verticalAlign=top;spacingLeft=4;spacingRight=4;overflow=hidden;rotatable=0;points=[[0,0.5],[1,0.5]];portConstraint=eastwest;rounded=0;shadow=0;html=0;" vertex="1" parent="27wgJjuN0Uf3lMTMzmJz-2">
          <mxGeometry y="104" width="160" height="26" as="geometry" />
        </mxCell>
        <mxCell id="27wgJjuN0Uf3lMTMzmJz-70" value="+Last Name: string" style="text;align=left;verticalAlign=top;spacingLeft=4;spacingRight=4;overflow=hidden;rotatable=0;points=[[0,0.5],[1,0.5]];portConstraint=eastwest;rounded=0;shadow=0;html=0;" vertex="1" parent="27wgJjuN0Uf3lMTMzmJz-2">
          <mxGeometry y="130" width="160" height="26" as="geometry" />
        </mxCell>
        <mxCell id="27wgJjuN0Uf3lMTMzmJz-10" value="-Flag: string&#xa;" style="text;align=left;verticalAlign=top;spacingLeft=4;spacingRight=4;overflow=hidden;rotatable=0;points=[[0,0.5],[1,0.5]];portConstraint=eastwest;rounded=0;shadow=0;html=0;" vertex="1" parent="27wgJjuN0Uf3lMTMzmJz-2">
          <mxGeometry y="156" width="160" height="26" as="geometry" />
        </mxCell>
        <mxCell id="27wgJjuN0Uf3lMTMzmJz-11" value="+PasswordTimeout: int" style="text;align=left;verticalAlign=top;spacingLeft=4;spacingRight=4;overflow=hidden;rotatable=0;points=[[0,0.5],[1,0.5]];portConstraint=eastwest;rounded=0;shadow=0;html=0;" vertex="1" parent="27wgJjuN0Uf3lMTMzmJz-2">
          <mxGeometry y="182" width="160" height="26" as="geometry" />
        </mxCell>
        <mxCell id="27wgJjuN0Uf3lMTMzmJz-12" value="+Topics: string" style="text;align=left;verticalAlign=top;spacingLeft=4;spacingRight=4;overflow=hidden;rotatable=0;points=[[0,0.5],[1,0.5]];portConstraint=eastwest;rounded=0;shadow=0;html=0;" vertex="1" parent="27wgJjuN0Uf3lMTMzmJz-2">
          <mxGeometry y="208" width="160" height="26" as="geometry" />
        </mxCell>
        <mxCell id="27wgJjuN0Uf3lMTMzmJz-16" value="+Email: string" style="text;align=left;verticalAlign=top;spacingLeft=4;spacingRight=4;overflow=hidden;rotatable=0;points=[[0,0.5],[1,0.5]];portConstraint=eastwest;rounded=0;shadow=0;html=0;" vertex="1" parent="27wgJjuN0Uf3lMTMzmJz-2">
          <mxGeometry y="234" width="160" height="26" as="geometry" />
        </mxCell>
        <mxCell id="27wgJjuN0Uf3lMTMzmJz-6" value="" style="line;html=1;strokeWidth=1;align=left;verticalAlign=middle;spacingTop=-1;spacingLeft=3;spacingRight=3;rotatable=0;labelPosition=right;points=[];portConstraint=eastwest;" vertex="1" parent="27wgJjuN0Uf3lMTMzmJz-2">
          <mxGeometry y="260" width="160" height="48" as="geometry" />
        </mxCell>
        <mxCell id="27wgJjuN0Uf3lMTMzmJz-17" value="+logout()" style="text;align=left;verticalAlign=top;spacingLeft=4;spacingRight=4;overflow=hidden;rotatable=0;points=[[0,0.5],[1,0.5]];portConstraint=eastwest;rounded=0;shadow=0;html=0;" vertex="1" parent="27wgJjuN0Uf3lMTMzmJz-2">
          <mxGeometry y="308" width="160" height="26" as="geometry" />
        </mxCell>
        <mxCell id="27wgJjuN0Uf3lMTMzmJz-14" value="+chooseRole()" style="text;align=left;verticalAlign=top;spacingLeft=4;spacingRight=4;overflow=hidden;rotatable=0;points=[[0,0.5],[1,0.5]];portConstraint=eastwest;rounded=0;shadow=0;html=0;" vertex="1" parent="27wgJjuN0Uf3lMTMzmJz-2">
          <mxGeometry y="334" width="160" height="26" as="geometry" />
        </mxCell>
        <mxCell id="27wgJjuN0Uf3lMTMzmJz-15" value="+logIn()" style="text;align=left;verticalAlign=top;spacingLeft=4;spacingRight=4;overflow=hidden;rotatable=0;points=[[0,0.5],[1,0.5]];portConstraint=eastwest;rounded=0;shadow=0;html=0;" vertex="1" parent="27wgJjuN0Uf3lMTMzmJz-2">
          <mxGeometry y="360" width="160" height="26" as="geometry" />
        </mxCell>
        <mxCell id="27wgJjuN0Uf3lMTMzmJz-77" style="edgeStyle=orthogonalEdgeStyle;rounded=0;orthogonalLoop=1;jettySize=auto;html=1;exitX=0.5;exitY=0;exitDx=0;exitDy=0;entryX=1;entryY=0.5;entryDx=0;entryDy=0;" edge="1" parent="WIyWlLk6GJQsqaUBKTNV-1" source="27wgJjuN0Uf3lMTMzmJz-24" target="27wgJjuN0Uf3lMTMzmJz-14">
          <mxGeometry relative="1" as="geometry" />
        </mxCell>
        <mxCell id="27wgJjuN0Uf3lMTMzmJz-24" value="Admin" style="swimlane;fontStyle=2;align=center;verticalAlign=top;childLayout=stackLayout;horizontal=1;startSize=26;horizontalStack=0;resizeParent=1;resizeLast=0;collapsible=1;marginBottom=0;rounded=0;shadow=0;strokeWidth=1;" vertex="1" parent="WIyWlLk6GJQsqaUBKTNV-1">
          <mxGeometry x="520" y="170" width="160" height="230" as="geometry">
            <mxRectangle x="320" y="-210" width="160" height="26" as="alternateBounds" />
          </mxGeometry>
        </mxCell>
        <mxCell id="27wgJjuN0Uf3lMTMzmJz-33" value="" style="line;html=1;strokeWidth=1;align=left;verticalAlign=middle;spacingTop=-1;spacingLeft=3;spacingRight=3;rotatable=0;labelPosition=right;points=[];portConstraint=eastwest;" vertex="1" parent="27wgJjuN0Uf3lMTMzmJz-24">
          <mxGeometry y="26" width="160" height="64" as="geometry" />
        </mxCell>
        <mxCell id="27wgJjuN0Uf3lMTMzmJz-34" value="+listUsers()" style="text;align=left;verticalAlign=top;spacingLeft=4;spacingRight=4;overflow=hidden;rotatable=0;points=[[0,0.5],[1,0.5]];portConstraint=eastwest;rounded=0;shadow=0;html=0;" vertex="1" parent="27wgJjuN0Uf3lMTMzmJz-24">
          <mxGeometry y="90" width="160" height="26" as="geometry" />
        </mxCell>
        <mxCell id="27wgJjuN0Uf3lMTMzmJz-42" value="+changeUserRole()" style="text;align=left;verticalAlign=top;spacingLeft=4;spacingRight=4;overflow=hidden;rotatable=0;points=[[0,0.5],[1,0.5]];portConstraint=eastwest;rounded=0;shadow=0;html=0;" vertex="1" parent="27wgJjuN0Uf3lMTMzmJz-24">
          <mxGeometry y="116" width="160" height="26" as="geometry" />
        </mxCell>
        <mxCell id="27wgJjuN0Uf3lMTMzmJz-35" value="+invite()" style="text;align=left;verticalAlign=top;spacingLeft=4;spacingRight=4;overflow=hidden;rotatable=0;points=[[0,0.5],[1,0.5]];portConstraint=eastwest;rounded=0;shadow=0;html=0;" vertex="1" parent="27wgJjuN0Uf3lMTMzmJz-24">
          <mxGeometry y="142" width="160" height="26" as="geometry" />
        </mxCell>
        <mxCell id="27wgJjuN0Uf3lMTMzmJz-36" value="+deleteUser()" style="text;align=left;verticalAlign=top;spacingLeft=4;spacingRight=4;overflow=hidden;rotatable=0;points=[[0,0.5],[1,0.5]];portConstraint=eastwest;rounded=0;shadow=0;html=0;" vertex="1" parent="27wgJjuN0Uf3lMTMzmJz-24">
          <mxGeometry y="168" width="160" height="26" as="geometry" />
        </mxCell>
        <mxCell id="27wgJjuN0Uf3lMTMzmJz-37" value="+resetUser()" style="text;align=left;verticalAlign=top;spacingLeft=4;spacingRight=4;overflow=hidden;rotatable=0;points=[[0,0.5],[1,0.5]];portConstraint=eastwest;rounded=0;shadow=0;html=0;" vertex="1" parent="27wgJjuN0Uf3lMTMzmJz-24">
          <mxGeometry y="194" width="160" height="26" as="geometry" />
        </mxCell>
        <mxCell id="0xaMqIsm4k_jvDirxX-q-4" style="edgeStyle=orthogonalEdgeStyle;rounded=0;orthogonalLoop=1;jettySize=auto;html=1;exitX=0.5;exitY=0;exitDx=0;exitDy=0;" edge="1" parent="WIyWlLk6GJQsqaUBKTNV-1" source="27wgJjuN0Uf3lMTMzmJz-43">
          <mxGeometry relative="1" as="geometry">
            <mxPoint x="400" y="100" as="targetPoint" />
          </mxGeometry>
        </mxCell>
        <mxCell id="27wgJjuN0Uf3lMTMzmJz-43" value="Student" style="swimlane;fontStyle=2;align=center;verticalAlign=top;childLayout=stackLayout;horizontal=1;startSize=26;horizontalStack=0;resizeParent=1;resizeLast=0;collapsible=1;marginBottom=0;rounded=0;shadow=0;strokeWidth=1;" vertex="1" parent="WIyWlLk6GJQsqaUBKTNV-1">
          <mxGeometry x="320" y="170" width="160" height="120" as="geometry">
            <mxRectangle x="320" y="-210" width="160" height="26" as="alternateBounds" />
          </mxGeometry>
        </mxCell>
        <mxCell id="27wgJjuN0Uf3lMTMzmJz-52" value="" style="line;html=1;strokeWidth=1;align=left;verticalAlign=middle;spacingTop=-1;spacingLeft=3;spacingRight=3;rotatable=0;labelPosition=right;points=[];portConstraint=eastwest;" vertex="1" parent="27wgJjuN0Uf3lMTMzmJz-43">
          <mxGeometry y="26" width="160" height="48" as="geometry" />
        </mxCell>
        <mxCell id="27wgJjuN0Uf3lMTMzmJz-75" style="edgeStyle=orthogonalEdgeStyle;rounded=0;orthogonalLoop=1;jettySize=auto;html=1;exitX=0.5;exitY=0;exitDx=0;exitDy=0;entryX=0;entryY=0.5;entryDx=0;entryDy=0;" edge="1" parent="WIyWlLk6GJQsqaUBKTNV-1" source="27wgJjuN0Uf3lMTMzmJz-57" target="27wgJjuN0Uf3lMTMzmJz-14">
          <mxGeometry relative="1" as="geometry" />
        </mxCell>
        <mxCell id="27wgJjuN0Uf3lMTMzmJz-57" value="Instructor" style="swimlane;fontStyle=2;align=center;verticalAlign=top;childLayout=stackLayout;horizontal=1;startSize=26;horizontalStack=0;resizeParent=1;resizeLast=0;collapsible=1;marginBottom=0;rounded=0;shadow=0;strokeWidth=1;" vertex="1" parent="WIyWlLk6GJQsqaUBKTNV-1">
          <mxGeometry x="120" y="170" width="160" height="120" as="geometry">
            <mxRectangle x="320" y="-210" width="160" height="26" as="alternateBounds" />
          </mxGeometry>
        </mxCell>
        <mxCell id="27wgJjuN0Uf3lMTMzmJz-66" value="" style="line;html=1;strokeWidth=1;align=left;verticalAlign=middle;spacingTop=-1;spacingLeft=3;spacingRight=3;rotatable=0;labelPosition=right;points=[];portConstraint=eastwest;" vertex="1" parent="27wgJjuN0Uf3lMTMzmJz-57">
          <mxGeometry y="26" width="160" height="48" as="geometry" />
        </mxCell>
      </root>
    </mxGraphModel>
  </diagram>
</mxfile>
